<svg xmlns="http://www.w3.org/2000/svg" viewBox="27.0 518.0 383.7 407.7"><path d="M216.5 906.612c-.343-.618-1.818-5.088-3.278-9.933-9.254-30.706-26.433-61.799-55.2-99.912-10.809-14.319-20.982-26.999-48.49-60.437-31.851-38.718-40.975-51.12-50.188-68.228-5.44-10.103-11.078-25.474-12.934-35.263-1.854-9.783-1.884-25.767-.064-34.09 7.403-33.854 37.475-59.394 73.433-62.368 41.193-3.407 76.232 17.402 94.643 56.207l4.111 8.665 3.095-6.846c4.597-10.171 9.025-17.05 16.498-25.634 19.028-21.853 41.674-32.558 68.955-32.596 12.22-.017 19.222.998 29.635 4.293 15.574 4.928 27.298 12.605 37.739 24.713 27.21 31.553 23.988 74.54-9.532 127.187-7.82 12.281-21.928 30.452-41.33 53.232-22.344 26.231-33.26 39.563-44.438 54.265-26.791 35.24-44.81 67.26-54.72 97.243-1.513 4.574-3.097 8.836-3.52 9.471-.986 1.476-3.603 1.494-4.415.031z" fill="currentColor"/></svg>